<svg width="168" height="126" viewBox="0 0 168 126" fill="none" xmlns="http://www.w3.org/2000/svg">
<path d="M159 0.666648L9.00004 0.666635C7.48135 0.671396 5.99273 1.09026 4.69441 1.87812C3.39607 2.66599 2.33718 3.79301 1.63174 5.13791C0.926295 6.4828 0.600978 7.99464 0.690837 9.51066C0.780711 11.0267 1.28231 12.4895 2.1417 13.7416L77.1417 122.075C80.25 126.567 87.7334 126.567 90.85 122.075L165.85 13.7417C166.718 12.4921 167.227 11.0286 167.322 9.51003C167.417 7.99148 167.093 6.47601 166.387 5.12826C165.681 3.78052 164.619 2.65204 163.317 1.86546C162.015 1.07886 160.522 0.664253 159 0.666648Z" fill="black"/>
</svg>
